<svg width="66" height="67" viewBox="0 0 66 67" fill="none" xmlns="http://www.w3.org/2000/svg">
<path d="M35.6837 21.1942L58.3458 43.8564C60.3819 45.8924 63.8689 45.0187 64.6818 42.2534C65.6391 38.979 66.1025 35.4995 65.981 31.8909C65.4112 14.6834 51.4021 0.628779 34.1946 0.0210093C15.4221 -0.63994 0 14.3796 0 33.0001C0 36.2213 0.463424 39.3361 1.3295 42.2838C2.13479 45.0339 5.62187 45.8772 7.6503 43.8564L30.3125 21.1942C31.7939 19.7127 34.2022 19.7127 35.6837 21.1942Z" fill="url(#paint0_linear_5740_38131)"/>
<path d="M28.5575 52.2813L30.4036 50.4352C31.8851 48.9538 34.2934 48.9538 35.7748 50.4352L46.0765 60.7521C47.1249 61.8005 48.7583 62.036 50.027 61.2687C51.083 60.6305 52.0934 59.9468 53.0658 59.2023C54.8967 57.7968 55.0943 55.1074 53.4609 53.474L35.676 35.6892C34.1946 34.2078 31.7863 34.2078 30.3049 35.6892L12.52 53.474C10.8942 55.0998 11.0766 57.7816 12.8999 59.1871C18.4686 63.4643 25.4351 66.0093 32.9942 66.0093H33.0322C34.4605 66.0093 35.1746 64.2847 34.1642 63.2743L28.5575 57.6525C27.0761 56.171 27.0761 53.7627 28.5575 52.2813Z" fill="#2F63ED"/>
<defs>
<linearGradient id="paint0_linear_5740_38131" x1="14.6374" y1="5.57306" x2="61.7384" y2="34.3638" gradientUnits="userSpaceOnUse">
<stop stop-color="#2C63ED"/>
<stop offset="0.994792" stop-color="#8360FD"/>
</linearGradient>
</defs>
</svg>
