<svg width="567" height="352" viewBox="0 0 567 352" fill="none" xmlns="http://www.w3.org/2000/svg">
<g opacity="0.5">
<rect x="1" y="1" width="26.9298" height="26.9298" stroke="#9195A7" stroke-opacity="0.12" stroke-width="0.538596"/>
<rect x="27.9298" y="1" width="26.9298" height="26.9298" stroke="#9195A7" stroke-opacity="0.12" stroke-width="0.538596"/>
<rect x="54.8596" y="1" width="26.9298" height="26.9298" stroke="#9195A7" stroke-opacity="0.12" stroke-width="0.538596"/>
<rect x="81.7894" y="1" width="26.9298" height="26.9298" stroke="#9195A7" stroke-opacity="0.12" stroke-width="0.538596"/>
<rect x="108.719" y="1" width="26.9298" height="26.9298" stroke="#9195A7" stroke-opacity="0.12" stroke-width="0.538596"/>
<rect x="135.649" y="1" width="26.9298" height="26.9298" stroke="#9195A7" stroke-opacity="0.12" stroke-width="0.538596"/>
<rect x="162.579" y="1" width="26.9298" height="26.9298" stroke="#9195A7" stroke-opacity="0.12" stroke-width="0.538596"/>
<rect x="189.509" y="1" width="26.9298" height="26.9298" stroke="#9195A7" stroke-opacity="0.12" stroke-width="0.538596"/>
<rect x="216.438" y="1" width="26.9298" height="26.9298" stroke="#9195A7" stroke-opacity="0.12" stroke-width="0.538596"/>
<rect x="243.368" y="1" width="26.9298" height="26.9298" stroke="#9195A7" stroke-opacity="0.12" stroke-width="0.538596"/>
<rect x="270.298" y="1" width="26.9298" height="26.9298" stroke="#9195A7" stroke-opacity="0.12" stroke-width="0.538596"/>
<rect x="297.228" y="1" width="26.9298" height="26.9298" stroke="#9195A7" stroke-opacity="0.12" stroke-width="0.538596"/>
<rect x="324.158" y="1" width="26.9298" height="26.9298" stroke="#9195A7" stroke-opacity="0.12" stroke-width="0.538596"/>
<rect x="351.088" y="1" width="26.9298" height="26.9298" stroke="#9195A7" stroke-opacity="0.12" stroke-width="0.538596"/>
<rect x="378.017" y="1" width="26.9298" height="26.9298" stroke="#9195A7" stroke-opacity="0.12" stroke-width="0.538596"/>
<rect x="404.947" y="1" width="26.9298" height="26.9298" stroke="#9195A7" stroke-opacity="0.12" stroke-width="0.538596"/>
<rect x="431.877" y="1" width="26.9298" height="26.9298" stroke="#9195A7" stroke-opacity="0.12" stroke-width="0.538596"/>
<rect x="458.807" y="1" width="26.9298" height="26.9298" stroke="#9195A7" stroke-opacity="0.12" stroke-width="0.538596"/>
<rect x="485.737" y="1" width="26.9298" height="26.9298" stroke="#9195A7" stroke-opacity="0.12" stroke-width="0.538596"/>
<rect x="512.666" y="1" width="26.9298" height="26.9298" stroke="#9195A7" stroke-opacity="0.12" stroke-width="0.538596"/>
<rect x="539.596" y="1" width="26.9298" height="26.9298" stroke="#9195A7" stroke-opacity="0.12" stroke-width="0.538596"/>
<rect x="1" y="27.927" width="26.9298" height="26.9298" stroke="#9195A7" stroke-opacity="0.12" stroke-width="0.538596"/>
<rect x="27.9298" y="27.927" width="26.9298" height="26.9298" stroke="#9195A7" stroke-opacity="0.2" stroke-width="0.538596"/>
<rect x="54.8596" y="27.927" width="26.9298" height="26.9298" fill="#9195A7" fill-opacity="0.2" stroke="#9195A7" stroke-opacity="0.2" stroke-width="0.538596"/>
<rect x="81.7894" y="27.927" width="26.9298" height="26.9298" stroke="#9195A7" stroke-opacity="0.2" stroke-width="0.538596"/>
<rect x="108.719" y="27.927" width="26.9298" height="26.9298" stroke="#9195A7" stroke-opacity="0.2" stroke-width="0.538596"/>
<rect x="135.649" y="27.927" width="26.9298" height="26.9298" stroke="#9195A7" stroke-opacity="0.2" stroke-width="0.538596"/>
<rect x="162.579" y="27.927" width="26.9298" height="26.9298" stroke="#9195A7" stroke-opacity="0.2" stroke-width="0.538596"/>
<rect x="189.509" y="27.927" width="26.9298" height="26.9298" stroke="#9195A7" stroke-opacity="0.2" stroke-width="0.538596"/>
<rect x="216.438" y="27.927" width="26.9298" height="26.9298" stroke="#9195A7" stroke-opacity="0.2" stroke-width="0.538596"/>
<rect x="243.368" y="27.927" width="26.9298" height="26.9298" fill="#9195A7" fill-opacity="0.2" stroke="#9195A7" stroke-opacity="0.2" stroke-width="0.538596"/>
<rect x="270.298" y="27.927" width="26.9298" height="26.9298" stroke="#9195A7" stroke-opacity="0.2" stroke-width="0.538596"/>
<rect x="297.228" y="27.927" width="26.9298" height="26.9298" stroke="#9195A7" stroke-opacity="0.2" stroke-width="0.538596"/>
<rect x="324.158" y="27.927" width="26.9298" height="26.9298" stroke="#9195A7" stroke-opacity="0.2" stroke-width="0.538596"/>
<rect x="351.088" y="27.927" width="26.9298" height="26.9298" stroke="#9195A7" stroke-opacity="0.2" stroke-width="0.538596"/>
<rect x="378.017" y="27.927" width="26.9298" height="26.9298" stroke="#9195A7" stroke-opacity="0.2" stroke-width="0.538596"/>
<rect x="404.947" y="27.927" width="26.9298" height="26.9298" stroke="#9195A7" stroke-opacity="0.2" stroke-width="0.538596"/>
<rect x="431.877" y="27.927" width="26.9298" height="26.9298" stroke="#9195A7" stroke-opacity="0.2" stroke-width="0.538596"/>
<rect x="458.807" y="27.927" width="26.9298" height="26.9298" stroke="#9195A7" stroke-opacity="0.2" stroke-width="0.538596"/>
<rect x="485.737" y="27.927" width="26.9298" height="26.9298" stroke="#9195A7" stroke-opacity="0.2" stroke-width="0.538596"/>
<rect x="512.666" y="27.927" width="26.9298" height="26.9298" stroke="#9195A7" stroke-opacity="0.2" stroke-width="0.538596"/>
<rect x="539.596" y="27.927" width="26.9298" height="26.9298" stroke="#9195A7" stroke-opacity="0.12" stroke-width="0.538596"/>
<rect x="1" y="54.8613" width="26.9298" height="26.9298" stroke="#9195A7" stroke-opacity="0.12" stroke-width="0.538596"/>
<rect x="27.9298" y="54.8613" width="26.9298" height="26.9298" stroke="#9195A7" stroke-opacity="0.2" stroke-width="0.538596"/>
<rect x="54.8596" y="54.8613" width="26.9298" height="26.9298" stroke="#9195A7" stroke-opacity="0.2" stroke-width="0.538596"/>
<rect x="81.7894" y="54.8613" width="26.9298" height="26.9298" stroke="#9195A7" stroke-opacity="0.2" stroke-width="0.538596"/>
<rect x="108.719" y="54.8613" width="26.9298" height="26.9298" stroke="#9195A7" stroke-opacity="0.2" stroke-width="0.538596"/>
<rect x="135.649" y="54.8613" width="26.9298" height="26.9298" stroke="#9195A7" stroke-opacity="0.2" stroke-width="0.538596"/>
<rect x="162.579" y="54.8613" width="26.9298" height="26.9298" stroke="#9195A7" stroke-opacity="0.2" stroke-width="0.538596"/>
<rect x="189.509" y="54.8613" width="26.9298" height="26.9298" stroke="#9195A7" stroke-opacity="0.2" stroke-width="0.538596"/>
<rect x="216.438" y="54.8613" width="26.9298" height="26.9298" stroke="#9195A7" stroke-opacity="0.2" stroke-width="0.538596"/>
<rect x="243.368" y="54.8613" width="26.9298" height="26.9298" stroke="#9195A7" stroke-opacity="0.2" stroke-width="0.538596"/>
<rect x="270.298" y="54.8613" width="26.9298" height="26.9298" stroke="#9195A7" stroke-opacity="0.2" stroke-width="0.538596"/>
<rect x="297.228" y="54.8613" width="26.9298" height="26.9298" stroke="#9195A7" stroke-opacity="0.2" stroke-width="0.538596"/>
<rect x="324.158" y="54.8613" width="26.9298" height="26.9298" stroke="#9195A7" stroke-opacity="0.2" stroke-width="0.538596"/>
<rect x="351.088" y="54.8613" width="26.9298" height="26.9298" stroke="#9195A7" stroke-opacity="0.2" stroke-width="0.538596"/>
<rect x="378.017" y="54.8613" width="26.9298" height="26.9298" stroke="#9195A7" stroke-opacity="0.2" stroke-width="0.538596"/>
<rect x="404.947" y="54.8613" width="26.9298" height="26.9298" stroke="#9195A7" stroke-opacity="0.2" stroke-width="0.538596"/>
<rect x="431.877" y="54.8613" width="26.9298" height="26.9298" fill="#9195A7" fill-opacity="0.2" stroke="#9195A7" stroke-opacity="0.2" stroke-width="0.538596"/>
<rect x="458.807" y="54.8613" width="26.9298" height="26.9298" stroke="#9195A7" stroke-opacity="0.2" stroke-width="0.538596"/>
<rect x="485.737" y="54.8613" width="26.9298" height="26.9298" stroke="#9195A7" stroke-opacity="0.2" stroke-width="0.538596"/>
<rect x="512.666" y="54.8613" width="26.9298" height="26.9298" stroke="#9195A7" stroke-opacity="0.2" stroke-width="0.538596"/>
<rect x="539.596" y="54.8613" width="26.9298" height="26.9298" stroke="#9195A7" stroke-opacity="0.12" stroke-width="0.538596"/>
<rect x="1" y="81.7883" width="26.9298" height="26.9298" stroke="#9195A7" stroke-opacity="0.12" stroke-width="0.538596"/>
<rect x="27.9298" y="81.7883" width="26.9298" height="26.9298" stroke="#9195A7" stroke-opacity="0.2" stroke-width="0.538596"/>
<rect x="54.8596" y="81.7883" width="26.9298" height="26.9298" stroke="#9195A7" stroke-opacity="0.2" stroke-width="0.538596"/>
<rect x="81.7894" y="81.7883" width="26.9298" height="26.9298" stroke="#9195A7" stroke-opacity="0.2" stroke-width="0.538596"/>
<rect x="108.719" y="81.7883" width="26.9298" height="26.9298" stroke="#9195A7" stroke-opacity="0.2" stroke-width="0.538596"/>
<rect x="135.649" y="81.7883" width="26.9298" height="26.9298" stroke="#9195A7" stroke-opacity="0.2" stroke-width="0.538596"/>
<rect x="162.579" y="81.7883" width="26.9298" height="26.9298" stroke="#9195A7" stroke-opacity="0.2" stroke-width="0.538596"/>
<rect x="189.509" y="81.7883" width="26.9298" height="26.9298" stroke="#9195A7" stroke-opacity="0.2" stroke-width="0.538596"/>
<rect x="216.438" y="81.7883" width="26.9298" height="26.9298" stroke="#9195A7" stroke-opacity="0.2" stroke-width="0.538596"/>
<rect x="243.368" y="81.7883" width="26.9298" height="26.9298" stroke="#9195A7" stroke-opacity="0.2" stroke-width="0.538596"/>
<rect x="270.298" y="81.7883" width="26.9298" height="26.9298" stroke="#9195A7" stroke-opacity="0.2" stroke-width="0.538596"/>
<rect x="297.228" y="81.7883" width="26.9298" height="26.9298" stroke="#9195A7" stroke-opacity="0.2" stroke-width="0.538596"/>
<rect x="324.158" y="81.7883" width="26.9298" height="26.9298" stroke="#9195A7" stroke-opacity="0.2" stroke-width="0.538596"/>
<rect x="351.088" y="81.7883" width="26.9298" height="26.9298" stroke="#9195A7" stroke-opacity="0.2" stroke-width="0.538596"/>
<rect x="378.017" y="81.7883" width="26.9298" height="26.9298" stroke="#9195A7" stroke-opacity="0.2" stroke-width="0.538596"/>
<rect x="404.947" y="81.7883" width="26.9298" height="26.9298" stroke="#9195A7" stroke-opacity="0.2" stroke-width="0.538596"/>
<rect x="431.877" y="81.7883" width="26.9298" height="26.9298" stroke="#9195A7" stroke-opacity="0.2" stroke-width="0.538596"/>
<rect x="458.807" y="81.7883" width="26.9298" height="26.9298" stroke="#9195A7" stroke-opacity="0.2" stroke-width="0.538596"/>
<rect x="485.737" y="81.7883" width="26.9298" height="26.9298" stroke="#9195A7" stroke-opacity="0.2" stroke-width="0.538596"/>
<rect x="512.666" y="81.7883" width="26.9298" height="26.9298" stroke="#9195A7" stroke-opacity="0.2" stroke-width="0.538596"/>
<rect x="539.596" y="81.7883" width="26.9298" height="26.9298" stroke="#9195A7" stroke-opacity="0.12" stroke-width="0.538596"/>
<rect x="1" y="108.719" width="26.9298" height="26.9298" stroke="#9195A7" stroke-opacity="0.12" stroke-width="0.538596"/>
<rect x="27.9298" y="108.719" width="26.9298" height="26.9298" stroke="#9195A7" stroke-opacity="0.2" stroke-width="0.538596"/>
<rect x="54.8596" y="108.719" width="26.9298" height="26.9298" stroke="#9195A7" stroke-opacity="0.2" stroke-width="0.538596"/>
<rect x="81.7894" y="108.719" width="26.9298" height="26.9298" fill="#9195A7" fill-opacity="0.2" stroke="#9195A7" stroke-opacity="0.2" stroke-width="0.538596"/>
<rect x="108.719" y="108.719" width="26.9298" height="26.9298" stroke="#9195A7" stroke-opacity="0.2" stroke-width="0.538596"/>
<rect x="135.649" y="108.719" width="26.9298" height="26.9298" stroke="#9195A7" stroke-opacity="0.2" stroke-width="0.538596"/>
<rect x="162.579" y="108.719" width="26.9298" height="26.9298" stroke="#9195A7" stroke-opacity="0.2" stroke-width="0.538596"/>
<rect x="189.509" y="108.719" width="26.9298" height="26.9298" stroke="#9195A7" stroke-opacity="0.2" stroke-width="0.538596"/>
<rect x="216.438" y="108.719" width="26.9298" height="26.9298" stroke="#9195A7" stroke-opacity="0.2" stroke-width="0.538596"/>
<rect x="243.368" y="108.719" width="26.9298" height="26.9298" stroke="#9195A7" stroke-opacity="0.2" stroke-width="0.538596"/>
<rect x="270.298" y="108.719" width="26.9298" height="26.9298" stroke="#9195A7" stroke-opacity="0.2" stroke-width="0.538596"/>
<rect x="297.228" y="108.719" width="26.9298" height="26.9298" stroke="#9195A7" stroke-opacity="0.2" stroke-width="0.538596"/>
<rect x="324.158" y="108.719" width="26.9298" height="26.9298" fill="#9195A7" fill-opacity="0.2" stroke="#9195A7" stroke-opacity="0.2" stroke-width="0.538596"/>
<rect x="351.088" y="108.719" width="26.9298" height="26.9298" stroke="#9195A7" stroke-opacity="0.2" stroke-width="0.538596"/>
<rect x="378.017" y="108.719" width="26.9298" height="26.9298" stroke="#9195A7" stroke-opacity="0.2" stroke-width="0.538596"/>
<rect x="404.947" y="108.719" width="26.9298" height="26.9298" stroke="#9195A7" stroke-opacity="0.2" stroke-width="0.538596"/>
<rect x="431.877" y="108.719" width="26.9298" height="26.9298" stroke="#9195A7" stroke-opacity="0.2" stroke-width="0.538596"/>
<rect x="458.807" y="108.719" width="26.9298" height="26.9298" stroke="#9195A7" stroke-opacity="0.2" stroke-width="0.538596"/>
<rect x="485.737" y="108.719" width="26.9298" height="26.9298" stroke="#9195A7" stroke-opacity="0.2" stroke-width="0.538596"/>
<rect x="512.666" y="108.719" width="26.9298" height="26.9298" stroke="#9195A7" stroke-opacity="0.2" stroke-width="0.538596"/>
<rect x="539.596" y="108.719" width="26.9298" height="26.9298" stroke="#9195A7" stroke-opacity="0.12" stroke-width="0.538596"/>
<rect x="1" y="135.65" width="26.9298" height="26.9298" stroke="#9195A7" stroke-opacity="0.12" stroke-width="0.538596"/>
<rect x="27.9298" y="135.65" width="26.9298" height="26.9298" stroke="#9195A7" stroke-opacity="0.2" stroke-width="0.538596"/>
<rect x="54.8596" y="135.65" width="26.9298" height="26.9298" stroke="#9195A7" stroke-opacity="0.2" stroke-width="0.538596"/>
<rect x="81.7894" y="135.65" width="26.9298" height="26.9298" stroke="#9195A7" stroke-opacity="0.2" stroke-width="0.538596"/>
<rect x="108.719" y="135.65" width="26.9298" height="26.9298" stroke="#9195A7" stroke-opacity="0.2" stroke-width="0.538596"/>
<rect x="135.649" y="135.65" width="26.9298" height="26.9298" stroke="#9195A7" stroke-opacity="0.2" stroke-width="0.538596"/>
<rect x="162.579" y="135.65" width="26.9298" height="26.9298" stroke="#9195A7" stroke-opacity="0.2" stroke-width="0.538596"/>
<rect x="189.509" y="135.65" width="26.9298" height="26.9298" stroke="#9195A7" stroke-opacity="0.2" stroke-width="0.538596"/>
<rect x="216.438" y="135.65" width="26.9298" height="26.9298" stroke="#9195A7" stroke-opacity="0.2" stroke-width="0.538596"/>
<rect x="243.368" y="135.65" width="26.9298" height="26.9298" stroke="#9195A7" stroke-opacity="0.2" stroke-width="0.538596"/>
<rect x="270.298" y="135.65" width="26.9298" height="26.9298" stroke="#9195A7" stroke-opacity="0.2" stroke-width="0.538596"/>
<rect x="297.228" y="135.65" width="26.9298" height="26.9298" stroke="#9195A7" stroke-opacity="0.2" stroke-width="0.538596"/>
<rect x="324.158" y="135.65" width="26.9298" height="26.9298" stroke="#9195A7" stroke-opacity="0.2" stroke-width="0.538596"/>
<rect x="351.088" y="135.65" width="26.9298" height="26.9298" stroke="#9195A7" stroke-opacity="0.2" stroke-width="0.538596"/>
<rect x="378.017" y="135.65" width="26.9298" height="26.9298" stroke="#9195A7" stroke-opacity="0.2" stroke-width="0.538596"/>
<rect x="404.947" y="135.65" width="26.9298" height="26.9298" stroke="#9195A7" stroke-opacity="0.2" stroke-width="0.538596"/>
<rect x="431.877" y="135.65" width="26.9298" height="26.9298" stroke="#9195A7" stroke-opacity="0.2" stroke-width="0.538596"/>
<rect x="458.807" y="135.65" width="26.9298" height="26.9298" stroke="#9195A7" stroke-opacity="0.2" stroke-width="0.538596"/>
<rect x="485.737" y="135.65" width="26.9298" height="26.9298" fill="#9195A7" fill-opacity="0.2" stroke="#9195A7" stroke-opacity="0.2" stroke-width="0.538596"/>
<rect x="512.666" y="135.65" width="26.9298" height="26.9298" stroke="#9195A7" stroke-opacity="0.2" stroke-width="0.538596"/>
<rect x="539.596" y="135.65" width="26.9298" height="26.9298" stroke="#9195A7" stroke-opacity="0.12" stroke-width="0.538596"/>
<rect x="1" y="162.58" width="26.9298" height="26.9298" stroke="#9195A7" stroke-opacity="0.2" stroke-width="0.538596"/>
<rect x="27.9298" y="162.58" width="26.9298" height="26.9298" stroke="#9195A7" stroke-opacity="0.2" stroke-width="0.538596"/>
<rect x="54.8596" y="162.58" width="26.9298" height="26.9298" stroke="#9195A7" stroke-opacity="0.2" stroke-width="0.538596"/>
<rect x="81.7894" y="162.58" width="26.9298" height="26.9298" stroke="#9195A7" stroke-opacity="0.2" stroke-width="0.538596"/>
<rect x="108.719" y="162.58" width="26.9298" height="26.9298" stroke="#9195A7" stroke-opacity="0.2" stroke-width="0.538596"/>
<rect x="135.649" y="162.58" width="26.9298" height="26.9298" stroke="#9195A7" stroke-opacity="0.2" stroke-width="0.538596"/>
<rect x="162.579" y="162.58" width="26.9298" height="26.9298" stroke="#9195A7" stroke-opacity="0.2" stroke-width="0.538596"/>
<rect x="189.509" y="162.58" width="26.9298" height="26.9298" stroke="#9195A7" stroke-opacity="0.2" stroke-width="0.538596"/>
<rect x="216.438" y="162.58" width="26.9298" height="26.9298" stroke="#9195A7" stroke-opacity="0.2" stroke-width="0.538596"/>
<rect x="243.368" y="162.58" width="26.9298" height="26.9298" stroke="#9195A7" stroke-opacity="0.2" stroke-width="0.538596"/>
<rect x="270.298" y="162.58" width="26.9298" height="26.9298" stroke="#9195A7" stroke-opacity="0.2" stroke-width="0.538596"/>
<rect x="297.228" y="162.58" width="26.9298" height="26.9298" stroke="#9195A7" stroke-opacity="0.2" stroke-width="0.538596"/>
<rect x="324.158" y="162.58" width="26.9298" height="26.9298" stroke="#9195A7" stroke-opacity="0.2" stroke-width="0.538596"/>
<rect x="351.088" y="162.58" width="26.9298" height="26.9298" stroke="#9195A7" stroke-opacity="0.2" stroke-width="0.538596"/>
<rect x="378.017" y="162.58" width="26.9298" height="26.9298" stroke="#9195A7" stroke-opacity="0.2" stroke-width="0.538596"/>
<rect x="404.947" y="162.58" width="26.9298" height="26.9298" stroke="#9195A7" stroke-opacity="0.2" stroke-width="0.538596"/>
<rect x="431.877" y="162.58" width="26.9298" height="26.9298" stroke="#9195A7" stroke-opacity="0.2" stroke-width="0.538596"/>
<rect x="458.807" y="162.58" width="26.9298" height="26.9298" stroke="#9195A7" stroke-opacity="0.2" stroke-width="0.538596"/>
<rect x="485.737" y="162.58" width="26.9298" height="26.9298" stroke="#9195A7" stroke-opacity="0.2" stroke-width="0.538596"/>
<rect x="512.666" y="162.58" width="26.9298" height="26.9298" stroke="#9195A7" stroke-opacity="0.2" stroke-width="0.538596"/>
<rect x="539.596" y="162.58" width="26.9298" height="26.9298" stroke="#9195A7" stroke-opacity="0.2" stroke-width="0.538596"/>
<rect x="1" y="189.507" width="26.9298" height="26.9298" stroke="#9195A7" stroke-opacity="0.12" stroke-width="0.538596"/>
<rect x="27.9298" y="189.507" width="26.9298" height="26.9298" stroke="#9195A7" stroke-opacity="0.2" stroke-width="0.538596"/>
<rect x="54.8596" y="189.507" width="26.9298" height="26.9298" stroke="#9195A7" stroke-opacity="0.2" stroke-width="0.538596"/>
<rect x="81.7894" y="189.507" width="26.9298" height="26.9298" stroke="#9195A7" stroke-opacity="0.2" stroke-width="0.538596"/>
<rect x="108.719" y="189.507" width="26.9298" height="26.9298" stroke="#9195A7" stroke-opacity="0.2" stroke-width="0.538596"/>
<rect x="135.649" y="189.507" width="26.9298" height="26.9298" stroke="#9195A7" stroke-opacity="0.2" stroke-width="0.538596"/>
<rect x="162.579" y="189.507" width="26.9298" height="26.9298" stroke="#9195A7" stroke-opacity="0.2" stroke-width="0.538596"/>
<rect x="189.509" y="189.507" width="26.9298" height="26.9298" stroke="#9195A7" stroke-opacity="0.2" stroke-width="0.538596"/>
<rect x="216.438" y="189.507" width="26.9298" height="26.9298" fill="#9195A7" fill-opacity="0.2" stroke="#9195A7" stroke-opacity="0.2" stroke-width="0.538596"/>
<rect x="243.368" y="189.507" width="26.9298" height="26.9298" stroke="#9195A7" stroke-opacity="0.2" stroke-width="0.538596"/>
<rect x="270.298" y="189.507" width="26.9298" height="26.9298" stroke="#9195A7" stroke-opacity="0.2" stroke-width="0.538596"/>
<rect x="297.228" y="189.507" width="26.9298" height="26.9298" stroke="#9195A7" stroke-opacity="0.2" stroke-width="0.538596"/>
<rect x="324.158" y="189.507" width="26.9298" height="26.9298" stroke="#9195A7" stroke-opacity="0.2" stroke-width="0.538596"/>
<rect x="351.088" y="189.507" width="26.9298" height="26.9298" stroke="#9195A7" stroke-opacity="0.2" stroke-width="0.538596"/>
<rect x="378.017" y="189.507" width="26.9298" height="26.9298" stroke="#9195A7" stroke-opacity="0.2" stroke-width="0.538596"/>
<rect x="404.947" y="189.507" width="26.9298" height="26.9298" stroke="#9195A7" stroke-opacity="0.2" stroke-width="0.538596"/>
<rect x="431.877" y="189.507" width="26.9298" height="26.9298" stroke="#9195A7" stroke-opacity="0.2" stroke-width="0.538596"/>
<rect x="458.807" y="189.507" width="26.9298" height="26.9298" stroke="#9195A7" stroke-opacity="0.2" stroke-width="0.538596"/>
<rect x="485.737" y="189.507" width="26.9298" height="26.9298" stroke="#9195A7" stroke-opacity="0.2" stroke-width="0.538596"/>
<rect x="512.666" y="189.507" width="26.9298" height="26.9298" stroke="#9195A7" stroke-opacity="0.2" stroke-width="0.538596"/>
<rect x="539.596" y="189.507" width="26.9298" height="26.9298" stroke="#9195A7" stroke-opacity="0.2" stroke-width="0.538596"/>
<rect x="1" y="216.438" width="26.9298" height="26.9298" stroke="#9195A7" stroke-opacity="0.12" stroke-width="0.538596"/>
<rect x="27.9298" y="216.438" width="26.9298" height="26.9298" stroke="#9195A7" stroke-opacity="0.2" stroke-width="0.538596"/>
<rect x="54.8596" y="216.438" width="26.9298" height="26.9298" stroke="#9195A7" stroke-opacity="0.2" stroke-width="0.538596"/>
<rect x="81.7894" y="216.438" width="26.9298" height="26.9298" stroke="#9195A7" stroke-opacity="0.2" stroke-width="0.538596"/>
<rect x="108.719" y="216.438" width="26.9298" height="26.9298" fill="#9195A7" fill-opacity="0.2" stroke="#9195A7" stroke-opacity="0.2" stroke-width="0.538596"/>
<rect x="135.649" y="216.438" width="26.9298" height="26.9298" stroke="#9195A7" stroke-opacity="0.2" stroke-width="0.538596"/>
<rect x="162.579" y="216.438" width="26.9298" height="26.9298" stroke="#9195A7" stroke-opacity="0.2" stroke-width="0.538596"/>
<rect x="189.509" y="216.438" width="26.9298" height="26.9298" stroke="#9195A7" stroke-opacity="0.2" stroke-width="0.538596"/>
<rect x="216.438" y="216.438" width="26.9298" height="26.9298" stroke="#9195A7" stroke-opacity="0.2" stroke-width="0.538596"/>
<rect x="243.368" y="216.438" width="26.9298" height="26.9298" stroke="#9195A7" stroke-opacity="0.2" stroke-width="0.538596"/>
<rect x="270.298" y="216.438" width="26.9298" height="26.9298" stroke="#9195A7" stroke-opacity="0.2" stroke-width="0.538596"/>
<rect x="297.228" y="216.438" width="26.9298" height="26.9298" stroke="#9195A7" stroke-opacity="0.2" stroke-width="0.538596"/>
<rect x="324.158" y="216.438" width="26.9298" height="26.9298" stroke="#9195A7" stroke-opacity="0.2" stroke-width="0.538596"/>
<rect x="351.088" y="216.438" width="26.9298" height="26.9298" stroke="#9195A7" stroke-opacity="0.2" stroke-width="0.538596"/>
<rect x="378.017" y="216.438" width="26.9298" height="26.9298" stroke="#9195A7" stroke-opacity="0.2" stroke-width="0.538596"/>
<rect x="404.947" y="216.438" width="26.9298" height="26.9298" stroke="#9195A7" stroke-opacity="0.2" stroke-width="0.538596"/>
<rect x="431.877" y="216.438" width="26.9298" height="26.9298" stroke="#9195A7" stroke-opacity="0.2" stroke-width="0.538596"/>
<rect x="458.807" y="216.438" width="26.9298" height="26.9298" stroke="#9195A7" stroke-opacity="0.2" stroke-width="0.538596"/>
<rect x="485.737" y="216.438" width="26.9298" height="26.9298" stroke="#9195A7" stroke-opacity="0.2" stroke-width="0.538596"/>
<rect x="512.666" y="216.438" width="26.9298" height="26.9298" stroke="#9195A7" stroke-opacity="0.2" stroke-width="0.538596"/>
<rect x="539.596" y="216.438" width="26.9298" height="26.9298" stroke="#9195A7" stroke-opacity="0.12" stroke-width="0.538596"/>
<rect x="1" y="243.369" width="26.9298" height="26.9298" stroke="#9195A7" stroke-opacity="0.12" stroke-width="0.538596"/>
<rect x="27.9298" y="243.369" width="26.9298" height="26.9298" stroke="#9195A7" stroke-opacity="0.2" stroke-width="0.538596"/>
<rect x="54.8596" y="243.369" width="26.9298" height="26.9298" stroke="#9195A7" stroke-opacity="0.2" stroke-width="0.538596"/>
<rect x="81.7894" y="243.369" width="26.9298" height="26.9298" stroke="#9195A7" stroke-opacity="0.2" stroke-width="0.538596"/>
<rect x="108.719" y="243.369" width="26.9298" height="26.9298" stroke="#9195A7" stroke-opacity="0.2" stroke-width="0.538596"/>
<rect x="135.649" y="243.369" width="26.9298" height="26.9298" stroke="#9195A7" stroke-opacity="0.2" stroke-width="0.538596"/>
<rect x="162.579" y="243.369" width="26.9298" height="26.9298" stroke="#9195A7" stroke-opacity="0.2" stroke-width="0.538596"/>
<rect x="189.509" y="243.369" width="26.9298" height="26.9298" stroke="#9195A7" stroke-opacity="0.2" stroke-width="0.538596"/>
<rect x="216.438" y="243.369" width="26.9298" height="26.9298" stroke="#9195A7" stroke-opacity="0.2" stroke-width="0.538596"/>
<rect x="243.368" y="243.369" width="26.9298" height="26.9298" stroke="#9195A7" stroke-opacity="0.2" stroke-width="0.538596"/>
<rect x="270.298" y="243.369" width="26.9298" height="26.9298" stroke="#9195A7" stroke-opacity="0.2" stroke-width="0.538596"/>
<rect x="297.228" y="243.369" width="26.9298" height="26.9298" stroke="#9195A7" stroke-opacity="0.2" stroke-width="0.538596"/>
<rect x="324.158" y="243.369" width="26.9298" height="26.9298" stroke="#9195A7" stroke-opacity="0.2" stroke-width="0.538596"/>
<rect x="351.088" y="243.369" width="26.9298" height="26.9298" stroke="#9195A7" stroke-opacity="0.2" stroke-width="0.538596"/>
<rect x="378.017" y="243.369" width="26.9298" height="26.9298" stroke="#9195A7" stroke-opacity="0.2" stroke-width="0.538596"/>
<rect x="404.947" y="243.369" width="26.9298" height="26.9298" stroke="#9195A7" stroke-opacity="0.2" stroke-width="0.538596"/>
<rect x="431.877" y="243.369" width="26.9298" height="26.9298" stroke="#9195A7" stroke-opacity="0.2" stroke-width="0.538596"/>
<rect x="458.807" y="243.369" width="26.9298" height="26.9298" stroke="#9195A7" stroke-opacity="0.2" stroke-width="0.538596"/>
<rect x="485.737" y="243.369" width="26.9298" height="26.9298" stroke="#9195A7" stroke-opacity="0.2" stroke-width="0.538596"/>
<rect x="512.666" y="243.369" width="26.9298" height="26.9298" stroke="#9195A7" stroke-opacity="0.2" stroke-width="0.538596"/>
<rect x="539.596" y="243.369" width="26.9298" height="26.9298" stroke="#9195A7" stroke-opacity="0.12" stroke-width="0.538596"/>
<rect x="1" y="270.299" width="26.9298" height="26.9298" stroke="#9195A7" stroke-opacity="0.12" stroke-width="0.538596"/>
<rect x="27.9298" y="270.299" width="26.9298" height="26.9298" stroke="#9195A7" stroke-opacity="0.2" stroke-width="0.538596"/>
<rect x="54.8596" y="270.299" width="26.9298" height="26.9298" stroke="#9195A7" stroke-opacity="0.2" stroke-width="0.538596"/>
<rect x="81.7894" y="270.299" width="26.9298" height="26.9298" stroke="#9195A7" stroke-opacity="0.2" stroke-width="0.538596"/>
<rect x="108.719" y="270.299" width="26.9298" height="26.9298" stroke="#9195A7" stroke-opacity="0.2" stroke-width="0.538596"/>
<rect x="135.649" y="270.299" width="26.9298" height="26.9298" stroke="#9195A7" stroke-opacity="0.2" stroke-width="0.538596"/>
<rect x="162.579" y="270.299" width="26.9298" height="26.9298" stroke="#9195A7" stroke-opacity="0.2" stroke-width="0.538596"/>
<rect x="189.509" y="270.299" width="26.9298" height="26.9298" stroke="#9195A7" stroke-opacity="0.2" stroke-width="0.538596"/>
<rect x="216.438" y="270.299" width="26.9298" height="26.9298" stroke="#9195A7" stroke-opacity="0.2" stroke-width="0.538596"/>
<rect x="243.368" y="270.299" width="26.9298" height="26.9298" stroke="#9195A7" stroke-opacity="0.2" stroke-width="0.538596"/>
<rect x="270.298" y="270.299" width="26.9298" height="26.9298" stroke="#9195A7" stroke-opacity="0.2" stroke-width="0.538596"/>
<rect x="297.228" y="270.299" width="26.9298" height="26.9298" stroke="#9195A7" stroke-opacity="0.2" stroke-width="0.538596"/>
<rect x="324.158" y="270.299" width="26.9298" height="26.9298" stroke="#9195A7" stroke-opacity="0.2" stroke-width="0.538596"/>
<rect x="351.088" y="270.299" width="26.9298" height="26.9298" stroke="#9195A7" stroke-opacity="0.2" stroke-width="0.538596"/>
<rect x="378.017" y="270.299" width="26.9298" height="26.9298" stroke="#9195A7" stroke-opacity="0.2" stroke-width="0.538596"/>
<rect x="404.947" y="270.299" width="26.9298" height="26.9298" stroke="#9195A7" stroke-opacity="0.2" stroke-width="0.538596"/>
<rect x="431.877" y="270.299" width="26.9298" height="26.9298" stroke="#9195A7" stroke-opacity="0.2" stroke-width="0.538596"/>
<rect x="458.807" y="270.299" width="26.9298" height="26.9298" stroke="#9195A7" stroke-opacity="0.2" stroke-width="0.538596"/>
<rect x="485.737" y="270.299" width="26.9298" height="26.9298" stroke="#9195A7" stroke-opacity="0.2" stroke-width="0.538596"/>
<rect x="512.666" y="270.299" width="26.9298" height="26.9298" stroke="#9195A7" stroke-opacity="0.2" stroke-width="0.538596"/>
<rect x="539.596" y="270.299" width="26.9298" height="26.9298" stroke="#9195A7" stroke-opacity="0.12" stroke-width="0.538596"/>
<rect x="1" y="297.23" width="26.9298" height="26.9298" stroke="#9195A7" stroke-opacity="0.12" stroke-width="0.538596"/>
<rect x="27.9298" y="297.23" width="26.9298" height="26.9298" stroke="#9195A7" stroke-opacity="0.2" stroke-width="0.538596"/>
<rect x="54.8596" y="297.23" width="26.9298" height="26.9298" stroke="#9195A7" stroke-opacity="0.2" stroke-width="0.538596"/>
<rect x="81.7894" y="297.23" width="26.9298" height="26.9298" stroke="#9195A7" stroke-opacity="0.2" stroke-width="0.538596"/>
<rect x="108.719" y="297.23" width="26.9298" height="26.9298" stroke="#9195A7" stroke-opacity="0.2" stroke-width="0.538596"/>
<rect x="135.649" y="297.23" width="26.9298" height="26.9298" stroke="#9195A7" stroke-opacity="0.2" stroke-width="0.538596"/>
<rect x="162.579" y="297.23" width="26.9298" height="26.9298" stroke="#9195A7" stroke-opacity="0.2" stroke-width="0.538596"/>
<rect x="189.509" y="297.23" width="26.9298" height="26.9298" stroke="#9195A7" stroke-opacity="0.2" stroke-width="0.538596"/>
<rect x="216.438" y="297.23" width="26.9298" height="26.9298" stroke="#9195A7" stroke-opacity="0.2" stroke-width="0.538596"/>
<rect x="243.368" y="297.23" width="26.9298" height="26.9298" stroke="#9195A7" stroke-opacity="0.2" stroke-width="0.538596"/>
<rect x="270.298" y="297.23" width="26.9298" height="26.9298" stroke="#9195A7" stroke-opacity="0.2" stroke-width="0.538596"/>
<rect x="297.228" y="297.23" width="26.9298" height="26.9298" stroke="#9195A7" stroke-opacity="0.2" stroke-width="0.538596"/>
<rect x="324.158" y="297.23" width="26.9298" height="26.9298" stroke="#9195A7" stroke-opacity="0.2" stroke-width="0.538596"/>
<rect x="351.088" y="297.23" width="26.9298" height="26.9298" stroke="#9195A7" stroke-opacity="0.2" stroke-width="0.538596"/>
<rect x="378.017" y="297.23" width="26.9298" height="26.9298" stroke="#9195A7" stroke-opacity="0.2" stroke-width="0.538596"/>
<rect x="404.947" y="297.23" width="26.9298" height="26.9298" stroke="#9195A7" stroke-opacity="0.2" stroke-width="0.538596"/>
<rect x="431.877" y="297.23" width="26.9298" height="26.9298" stroke="#9195A7" stroke-opacity="0.2" stroke-width="0.538596"/>
<rect x="458.807" y="297.23" width="26.9298" height="26.9298" stroke="#9195A7" stroke-opacity="0.2" stroke-width="0.538596"/>
<rect x="485.737" y="297.23" width="26.9298" height="26.9298" stroke="#9195A7" stroke-opacity="0.2" stroke-width="0.538596"/>
<rect x="512.666" y="297.23" width="26.9298" height="26.9298" stroke="#9195A7" stroke-opacity="0.2" stroke-width="0.538596"/>
<rect x="539.596" y="297.23" width="26.9298" height="26.9298" stroke="#9195A7" stroke-opacity="0.12" stroke-width="0.538596"/>
<rect x="1" y="324.157" width="26.9298" height="26.9298" stroke="#9195A7" stroke-opacity="0.12" stroke-width="0.538596"/>
<rect x="27.9298" y="324.157" width="26.9298" height="26.9298" stroke="#9195A7" stroke-opacity="0.12" stroke-width="0.538596"/>
<rect x="54.8596" y="324.157" width="26.9298" height="26.9298" stroke="#9195A7" stroke-opacity="0.12" stroke-width="0.538596"/>
<rect x="81.7894" y="324.157" width="26.9298" height="26.9298" stroke="#9195A7" stroke-opacity="0.12" stroke-width="0.538596"/>
<rect x="108.719" y="324.157" width="26.9298" height="26.9298" stroke="#9195A7" stroke-opacity="0.12" stroke-width="0.538596"/>
<rect x="135.649" y="324.157" width="26.9298" height="26.9298" stroke="#9195A7" stroke-opacity="0.12" stroke-width="0.538596"/>
<rect x="162.579" y="324.157" width="26.9298" height="26.9298" stroke="#9195A7" stroke-opacity="0.12" stroke-width="0.538596"/>
<rect x="189.509" y="324.157" width="26.9298" height="26.9298" stroke="#9195A7" stroke-opacity="0.12" stroke-width="0.538596"/>
<rect x="216.438" y="324.157" width="26.9298" height="26.9298" stroke="#9195A7" stroke-opacity="0.12" stroke-width="0.538596"/>
<rect x="243.368" y="324.157" width="26.9298" height="26.9298" stroke="#9195A7" stroke-opacity="0.12" stroke-width="0.538596"/>
<rect x="270.298" y="324.157" width="26.9298" height="26.9298" stroke="#9195A7" stroke-opacity="0.12" stroke-width="0.538596"/>
<rect x="297.228" y="324.157" width="26.9298" height="26.9298" stroke="#9195A7" stroke-opacity="0.12" stroke-width="0.538596"/>
<rect x="324.158" y="324.157" width="26.9298" height="26.9298" stroke="#9195A7" stroke-opacity="0.12" stroke-width="0.538596"/>
<rect x="351.088" y="324.157" width="26.9298" height="26.9298" stroke="#9195A7" stroke-opacity="0.12" stroke-width="0.538596"/>
<rect x="378.017" y="324.157" width="26.9298" height="26.9298" stroke="#9195A7" stroke-opacity="0.12" stroke-width="0.538596"/>
<rect x="404.947" y="324.157" width="26.9298" height="26.9298" stroke="#9195A7" stroke-opacity="0.12" stroke-width="0.538596"/>
<rect x="431.877" y="324.157" width="26.9298" height="26.9298" stroke="#9195A7" stroke-opacity="0.12" stroke-width="0.538596"/>
<rect x="458.807" y="324.157" width="26.9298" height="26.9298" stroke="#9195A7" stroke-opacity="0.12" stroke-width="0.538596"/>
<rect x="485.737" y="324.157" width="26.9298" height="26.9298" stroke="#9195A7" stroke-opacity="0.12" stroke-width="0.538596"/>
<rect x="512.666" y="324.157" width="26.9298" height="26.9298" stroke="#9195A7" stroke-opacity="0.12" stroke-width="0.538596"/>
<rect x="539.596" y="324.157" width="26.9298" height="26.9298" stroke="#9195A7" stroke-opacity="0.12" stroke-width="0.538596"/>
</g>
</svg>
